<?xml version="1.0" encoding="utf-8"?>
<!-- Generator: Adobe Illustrator 25.4.1, SVG Export Plug-In . SVG Version: 6.00 Build 0)  -->
<svg version="1.1" id="Capa_1" xmlns="http://www.w3.org/2000/svg" xmlns:xlink="http://www.w3.org/1999/xlink" x="0px" y="0px"
	 viewBox="0 0 311.49 213.96" style="enable-background:new 0 0 311.49 213.96;" xml:space="preserve">
<style type="text/css">
	.st0{fill:#EE861C;}
	.st1{fill:#FBCB07;}
	.st2{fill:#393130;}
	.st3{fill:#E59138;}
</style>
<g>
	<path class="st0" d="M29.6,82.39c31.59,0.65,63.04,3.02,92.57,15.4c4.55,2.11,9.27,3.75,13.51,6.47c4.31,7.13,8.86,9.59,17.3,8.67
		c4.23,0.4,10.03-3.35,11.39-6.89c0.07-1.3,0.95-1.79,1.58-1.94c0.97-0.23,1.26-1.43,2.14-1.32c12.65-6.02,26.35-11.25,40.47-13.81
		c0.92-1.35,2.78,0.15,3.7-1.2c23.86-3.72,48.44-6.3,72.79-4.75c3.47,3.85,4.61,10.78,7.09,15.68c0.34,2.38,6.76,12.94,3.97,13
		c-40.68-11.36-84.94-15.54-126.15-3.23c-5.2-0.46-3.01,11.92-12.81,12.22c-8.21-0.2-21.14,2.39-22.66-8.84
		c-0.24-1.69-0.79-2.74-2.77-3.34c-31.17-9.31-64.56-8.7-96.12-3.97c-6.79,1.56-13.88,2.78-20.85,4.65
		c-2.05-0.04-11.29,4.78-10.38,1.01c4.13-8.43,7.94-17.09,11.48-25.79C16.36,81.63,26.87,82.72,29.6,82.39z"/>
	<path class="st1" d="M52.5,70.42c-7.52,0.01-14.55,0.88-22,1.75c-0.8,0.09-1.27,0.83-2.15,0.68c-0.72-0.12-1.58-0.28-2.18,0.53
		c-0.09,0.12-0.63,0.17-0.77-0.17c1.79-4.49,5.25-8.87,8.06-13.02c1.16-3.3,2.62-4.4,6.33-3.1c6.73,0.23,13.52,0.61,20.15,2.04
		c28.04,5.19,59.85,16.4,77.95,38.69C113.21,80.6,82.99,70.27,52.5,70.42z"/>
	<path class="st1" d="M163.03,96.46c22.15-21.34,51.28-33.07,81.75-38.01c6.64-0.41,13.34-1.42,19.94-1.82
		c0.84-0.07,1.41,0.33,1.72,0.91c2.52,4.8,6.11,8.95,8.52,13.82c0.46,0.51,1.91,1.8,0.49,2.03c-1.11-1.2-2.93,0.04-4.02-1.18
		c-27.05-3.44-57.31-1.48-81.3,10.63c-2.2,0-3.59,2.15-5.79,1.95c-0.78-0.11-0.53,0.62-0.75,0.97c-0.4,0.64-0.63-0.82-1.04-0.12
		c-1.8,2.76-6.28,3.61-8.96,5.76C169.9,93.2,167.61,97.53,163.03,96.46z"/>
	<path class="st1" d="M138.66,90.1c-22.9-24.07-51.51-39.36-85.62-38.22c-12.98,1.38-1.15-5.82,1.51-10.9
		c1.61-4.3,23.87,3.19,28.16,4.53C104.55,53.85,127.29,69.67,138.66,90.1z"/>
	<path class="st1" d="M255.2,51.86c-32.69-1.7-67.73,9.73-88.68,35.31c-0.28,1.16-3.98,3.04-2.98,0.64
		c3.08-4.14,5.6-8.83,9.94-11.69c-0.51-1.23,1.73-0.61,1.24-1.83c17.92-19.06,42.56-30.94,68.28-34.92
		C247.54,38.3,251.86,48.72,255.2,51.86z"/>
	<path class="st2" d="M123.67,158.41c0,4.27,0,8.33,0,12.48c-1.97,0-3.84,0-5.85,0c0-11.06,0-22.17,0-33.43
		c8.73,0.18,24.35-1.86,24.45,10.65c-0.35,4.19-3.16,7.69-7.19,8.85c-0.18,0.21-0.76,0.27-0.33,0.84c2.5,4.39,7.19,8.36,8.71,12.83
		c-1.88,0.76-4.98,0.43-7.17,0.04c-2.08-3.88-5.11-7.21-7.45-10.98C127.71,157.69,125.76,158.6,123.67,158.41z M123.76,153.04
		c15.89,1.96,15.99-12.75,0-10.2C123.76,146.23,123.76,149.48,123.76,153.04z"/>
	<path class="st2" d="M106.56,170.98c-1.2-2.5-1.95-5.17-3.22-7.64c-0.27-0.52-0.37-0.76-0.95-0.75c-3.59,0.02-7.18,0.01-10.78,0.01
		c-0.39,0-0.83-0.09-0.92,0.45c-0.38,2.41-1.94,4.39-2.42,6.77c-0.14,0.69-0.6,1.18-1.44,1.17c-1.87-0.03-3.75-0.01-5.7-0.01
		c-0.18-1.49,0.8-2.46,1.26-3.47c1.07-2.36,1.72-4.85,2.82-7.2c1.4-2.98,2.35-6.19,3.66-9.23c1.02-2.36,1.92-4.78,2.86-7.18
		c0.67-1.71,1.37-3.42,1.93-5.17c0.29-0.89,0.75-1.29,1.67-1.27c1.1,0.03,2.2,0.03,3.29,0c0.91-0.02,1.36,0.39,1.69,1.25
		c0.93,2.4,2.09,4.72,2.94,7.14c0.89,2.52,2.06,4.93,2.96,7.44c1.71,4.77,3.92,9.34,5.49,14.16c0.36,1.11,1.84,2.21,0.98,3.27
		c-0.67,0.82-2.25,0.19-3.42,0.26C108.37,171.02,107.47,170.98,106.56,170.98z M96.85,146.46c-1.28,3.51-2.56,7.02-3.92,10.75
		c2.39,0,4.46,0.01,6.53,0c1.67-0.01,1.61-0.04,1.07-1.88c-0.68-2.3-1.61-4.5-2.51-6.72C97.71,147.86,97.94,146.88,96.85,146.46z"/>
	<path class="st2" d="M159.09,170.98c0-10.9,0-21.41,0-32.02c3.53-3.6,12.94-1.39,17.78,0.32c4.61,2.47,6.23,10.19,1.37,13.12
		c-0.67,0.26-1.89,1.44-0.69,1.81c6.15,1.79,6.05,9.88,1.78,13.72C173.7,172.8,166.02,170.41,159.09,170.98z M163.99,156.01
		c0,3.76,0,7.22,0,10.77C182.64,169.57,183.01,152.92,163.99,156.01z M163.95,151.82c17.11,2.91,16.68-13.06,0-10.18
		C163.95,145.08,163.95,148.33,163.95,151.82z"/>
	<path class="st2" d="M28.29,164.29c5.14,1.87,19.26,4.57,16.21-5.02c-4.43-3.75-11.63-2.1-15.26-7.35
		c-2.27-5.22-0.73-11.44,4.64-13.6c4.19-2.52,9.26-1.29,13.87-0.26c3.63-0.37,4.07,7.6,0.34,5.71c-3.75-1.36-8.05-2.37-11.71-0.26
		c-5.18,4.37,2.66,8.05,6.77,8.24c8.92,0.56,12.01,12.94,4.35,17.39C41.59,172.53,26.2,174.23,28.29,164.29z"/>
	<path class="st2" d="M219.09,153.97c0,1.53,0.42,3.03-0.11,4.06c-0.59,1.14-0.68,2.37-0.96,3.48c-0.42,1.68-1.48,2.86-2.36,4.1
		c-1.68,2.37-4.04,4.14-6.83,5.07c-1.41,0.47-2.86,1.1-4.42,0.88c-1.41-0.2-2.97,0.61-4.25-0.59c-3.79-0.17-6.45-2.42-8.61-5.14
		c-1.66-2.09-2.99-4.57-3-7.38c-0.01-1.2-0.74-2.15-0.68-3.34c0.07-1.61,1.11-8.05,1.94-9.66c2.13-4.14,5.31-7.03,10.03-8.03
		c1.41-0.3,2.79-0.74,4.25-0.57c3.82,0.46,7.33,1.49,10.18,4.38c2.3,2.33,3.61,4.93,4.35,8.11
		C218.99,151.01,218.91,152.59,219.09,153.97z M214.89,154.26c-0.06-1.53-0.21-3.02-0.5-4.55c-0.45-2.37-1.76-4.19-3.15-5.85
		c-1.07-1.28-2.85-2.3-4.49-2.7c-1.88-0.46-4.06-0.46-5.93,0.01c-1.32,0.34-2.85,0.77-3.98,1.95c-1.54,1.61-2.83,3.27-3.6,5.4
		c-0.45,1.23-0.59,2.41-0.54,3.65c0.05,1.13-0.76,2.14-0.09,3.43c0.45,0.86-0.1,2.2,0.23,3.18c0.82,2.42,1.83,4.76,3.96,6.44
		c1.61,1.27,3.24,2.29,5.4,2.16c0.99-0.06,2,0.07,2.99-0.02c3.19-0.29,5.7-1.58,7.39-4.5C214.13,160.16,215.04,157.38,214.89,154.26
		z"/>
	<path class="st2" d="M225.07,154.38c0.07-2.44,0.24-4.64,0.93-6.93c1.02-3.4,3.18-5.76,5.71-7.76c1.52-1.21,3.38-2.28,5.63-2.31
		c1.07-0.02,2.18-0.6,3.35-0.52c4.3,0.3,8.31,1.49,11.12,4.9c2.21,2.68,3.87,5.75,3.9,9.44c0.01,0.93-0.26,1.85,0.51,2.8
		c0.45,0.55-0.66,1.4-0.57,2.39c0.4,4.26-1.79,7.64-4.27,10.75c-1.75,2.19-4.29,3.37-7.07,3.82c-1.22,0.2-2.3,0.82-3.65,0.68
		c-3.52-0.38-7.02-0.67-9.67-3.44c-1.99-0.56-2.62-2.38-3.46-3.9c-0.8-1.44-1.52-2.9-1.97-4.58
		C225.05,157.82,225.3,156.04,225.07,154.38z M251.44,154.58c0.32-3.44-0.28-6.66-2.36-9.48c-1.21-1.65-2.84-2.69-4.74-3.51
		c-1.74-0.75-3.45-0.53-5.17-0.51c-3.05,0.04-5.39,1.67-7.39,3.81c-0.61,0.65-2.42,5.54-2.48,6.44c-0.25,4.16,0.04,8.22,2.38,11.87
		c1.13,1.76,2.76,2.77,4.62,3.62c1.7,0.78,3.43,0.57,5.16,0.55c3.78-0.04,6.41-1.89,8.34-5.12
		C251.25,159.82,251.7,157.3,251.44,154.58z"/>
	<path class="st2" d="M82.23,138.15c0,1.56,0,3.02,0,4.59c-3.3,0-6.57,0-9.73,0c-0.18,0.17-0.26,0.23-0.32,0.31
		c-0.05,0.07-0.1,0.17-0.1,0.26c0,9.15,0,18.3,0,27.67c-1.73,0-3.4-0.01-5.07,0c-0.96,0.01-1.41-0.56-1.51-1.39
		c-0.09-0.69-0.02-1.39-0.02-2.09c0-8.15,0-16.3,0-24.55c-3.36,0-6.62,0-10.11,0c-0.18-1.62-0.04-3.16-0.1-4.8
		C64.25,138.15,73.1,138.15,82.23,138.15z"/>
	<path class="st2" d="M267.74,155.17c0,5.44,0,10.5,0,15.68c-1.64,0-3.18,0-4.79,0c0-11.09,0-22.13,0-33.39
		c1.83,0.17,5.05-0.82,4.73,2c0.03,4.92,0,8.85,0.01,13.99c4.38-5.43,9.15-9.27,13.35-14.57c0.87-1.7,3.54-1.49,5.14-1.43
		c0.2,0.72,0.02,1.02-0.3,1.31c-5.09,4.85-9.44,10.39-14.59,15.18c4.18,5.81,10.62,10.56,15.5,16.07c0.86,1.84-3.89,0.88-4.57-0.31
		C277.61,164.86,272.8,160.21,267.74,155.17z"/>
	<path class="st1" d="M138.1,23.66c3.26,0.3,5.67-0.68,8.17-1.08c2.57-0.42,4.45-1.83,5.91-3.74c0.75-0.97,0.97-2.38,1.31-3.62
		c0.34-1.27,0.61-2.56,0.77-3.86c0.16-1.3,0.93-2.44,0.63-4.29c0.91,1.53,1.29,2.53,1.23,3.76c-0.09,1.84,1.4,6.64,2.36,8.28
		c0.73,1.23,2.07,1.56,3.17,2.25c1.7,1.07,3.69,1.38,5.57,1.7c1.68,0.28,3.27,1.12,5.05,0.81c-0.98,0.73-1.93,1.18-3.15,1.11
		c-2.31-0.14-4.55,0.57-6.66,1.26c-2.56,0.83-4.34,3.07-4.97,5.55c-0.65,2.53-1.45,4.99-2.37,7.91c-0.53-2.44-0.91-4.5-1.45-6.53
		c-0.96-3.61-2.11-5.26-5.69-6.52c-2.53-0.88-5.03-1.61-7.68-1.66C139.44,24.95,139.19,24.4,138.1,23.66z"/>
	<path class="st1" d="M133.6,48c0.62,2.11,1.07,3.81,1.62,5.48c0.74,2.23,2.76,3.22,4.69,3.63c1.3,0.28,2.12,0.79,2.95,1.61
		c-1.15,1.09-2.77,0.93-4.14,1.44c-2.39,0.89-3.13,2.76-3.6,4.87c-0.13,0.59-0.12,1.18-0.68,1.51c-0.37,0.21-0.43,1.01-1.04,0.66
		c-0.39-0.22-0.82-0.57-0.72-1.18c0.4-2.52-1.31-3.95-2.92-5.34c-0.66-0.57-1.68-0.97-2.54-0.99c-1.46-0.04-2.73-1.06-4.24-0.67
		c-0.29,0.08-0.49-0.19-0.51-0.55c-0.01-0.36,0.15-0.6,0.46-0.61c1.53-0.06,3.05,0.09,4.56-0.56c1.19-0.51,2.43-0.94,3.49-1.68
		c1.15-0.81,1.23-2.36,1.56-3.5C132.9,50.91,133.24,49.6,133.6,48z"/>
	<path class="st3" d="M180.69,192.19c0-2.23,0.05-4.01-0.02-5.78c-0.03-0.71,0.32-1.08,0.75-1.5c0.25-0.25,0.55-0.2,0.81-0.11
		c0.13,0.05,0.26,0.3,0.26,0.47c0.01,3.38,0.01,6.77,0.02,10.15c0,0.33-0.08,0.6-0.39,0.68c-0.27,0.07-0.53-0.03-0.79-0.24
		c-1.83-1.49-2.54-3.83-4.22-5.43c0.1-1.11-1.03-1.35-1.57-2.25c-0.45,1.17-0.16,2.25-0.22,3.28c-0.06,0.99-0.01,1.99-0.01,2.99
		c0,0.4,0.03,0.8-0.01,1.19c-0.02,0.17-0.17,0.43-0.29,0.45c-0.27,0.04-0.58,0.13-0.81-0.18c-0.29-0.38-0.71-0.61-0.7-1.21
		c0.04-2.89,0.02-5.77,0.01-8.66c0-0.34,0.15-0.54,0.36-0.75c0.43-0.45,0.79-0.82,1.46-0.26c1.05,0.89,1.56,2.16,2.35,3.23
		C178.56,189.47,179.2,190.87,180.69,192.19z M180.9,193.04c0.13-0.07,0.26-0.14,0.39-0.21c-0.07-0.07-0.15-0.2-0.2-0.19
		c-0.14,0.03-0.27,0.12-0.4,0.19C180.75,192.89,180.82,192.96,180.9,193.04z"/>
	<path class="st3" d="M91.78,184.74c1.12-0.27,2.43,0.15,3.18,1.09c0.84,1.05,1.71,2.22,1.74,3.75c0.03,1.57-0.17,2.96-1.07,4.36
		c-1.39,2.15-4.37,2.81-6.6,1.5c-1.13-0.66-2.24-1.38-2.41-2.56c-0.24-1.7-0.5-3.49,0.21-5.2C87.71,185.57,89.3,184.63,91.78,184.74
		z M91.5,194.32c0.69-0.16,1.49,0.28,2.21-0.3c1.44-1.18,1.66-5.72,0.28-6.85c-0.12-0.1-0.41,0.04-0.57-0.03
		c-3.17-1.45-4.96-0.59-5.13,2.94c-0.02,0.39-0.02,0.79,0,1.19C88.4,193.48,89.26,194.31,91.5,194.32z"/>
	<path class="st3" d="M153.09,194.21c0-0.59-0.03-0.99,0.01-1.38c0.05-0.58-0.08-1.02-0.77-0.89c-0.72,0.13-1.09-0.33-1.48-0.76
		c-0.11-0.13-0.15-0.35-0.15-0.52c0-0.34,0.19-0.52,0.54-0.52c1.17,0,2.35,0,3.65,0c0,1.63-0.04,3.11,0.02,4.58
		c0.03,0.74-0.57,1.33-0.93,1.34c-1.46,0.06-2.99,0.39-4.38-0.16c-2.54-1.01-3.92-2.69-3.77-5.49c0.14-2.65,1.42-4.24,3.63-5.32
		c1.49-0.73,3.07-0.31,4.6-0.22c0.42,0.02,0.16,0.69,0.23,1.06c0.07,0.36-0.14,0.59-0.45,0.61c-0.79,0.04-1.59-0.01-2.39,0.02
		c-1.84,0.07-3.38,1.24-3.76,2.83c-0.41,1.7,0.51,4.26,2.01,4.78C150.65,194.47,151.81,194.21,153.09,194.21z"/>
	<path class="st3" d="M201.69,189.47c1.68,0,3.15,0,4.8,0c0-1.02,0.01-2,0-2.97c-0.01-0.5-0.03-0.95,0.44-1.32
		c0.32-0.25,0.59-0.56,1.02-0.42c0.3,0.1,0.35,0.4,0.35,0.72c-0.01,3.29,0,6.57-0.02,9.86c0,0.26-0.11,0.66-0.29,0.75
		c-0.38,0.19-0.7-0.07-1.02-0.36c-0.42-0.37-0.5-0.79-0.48-1.31c0.03-0.98,0.01-1.96,0.01-3.01c-1.61,0-3.08,0-4.8,0
		c0,1.32-0.01,2.68,0,4.05c0.01,0.78-0.54,0.66-1.01,0.66c-0.4,0-0.8,0.01-0.8-0.58c0.01-3.39,0.01-6.77,0-10.16
		c0-0.8,0.58-0.62,1.04-0.63c0.41-0.01,0.78,0.02,0.77,0.6C201.67,186.64,201.69,187.94,201.69,189.47z"/>
	<path class="st1" d="M171.77,47.41c5.72-1.19,5.58-1.42,6.61-6.7c0.02-0.08,0.13-0.14,0.2-0.21c0.64,0.51,0.93,1.08,0.96,1.99
		c0.06,2.48,0.73,3.29,3.17,3.94c0.67,0.18,1.05,0.21,1.01,1.01c-0.03,0.63-0.23,0.81-0.86,0.85c-2.36,0.15-2.89,1.98-3.35,3.81
		c-0.12,0.47-0.03,0.99-0.01,1.48c0.02,0.5-0.22,0.71-0.7,0.67c-0.33-0.03-0.58-0.21-0.49-0.56c0.26-1.02-0.52-1.79-0.62-2.73
		c-0.14-1.31-1.38-1.81-2.13-2.67c-0.13-0.15-0.59-0.08-0.87-0.01C173.53,48.55,172.75,47.62,171.77,47.41z"/>
	<path class="st3" d="M213.79,189.53c1.39,0,2.67,0.01,3.95,0c0.31,0,0.63,0.04,0.73,0.34c0.14,0.42-0.15,0.7-0.41,1.02
		c-0.37,0.45-0.82,0.46-1.32,0.45c-0.98-0.02-1.95,0-2.99,0c0,1.03,0,1.89,0,2.99c1.56,0,3.12,0.01,4.69,0
		c0.79-0.01,0.63,0.57,0.64,1.03c0.01,0.4,0,0.78-0.59,0.78c-1.69-0.02-3.39-0.02-5.08,0c-0.96,0.01-1.48-0.57-1.5-1.4
		c-0.06-2.88-0.07-5.76,0-8.64c0.02-0.82,0.58-1.37,1.55-1.35c1.39,0.04,2.79,0.03,4.18,0c0.45-0.01,0.72,0.18,1.01,0.46
		c0.31,0.29,0.56,0.6,0.41,1.02c-0.1,0.3-0.43,0.33-0.74,0.33c-1.48-0.01-2.96,0-4.55,0C213.79,187.49,213.79,188.36,213.79,189.53z
		"/>
	<path class="st3" d="M187.95,186.54c0,1.08,0,1.95,0,2.99c1.43,0,2.81,0,4.19,0c0.36,0,0.55,0.18,0.54,0.52
		c0,0.18-0.05,0.4-0.16,0.53c-0.39,0.45-0.76,0.84-1.49,0.77c-0.98-0.09-1.97-0.02-3.05-0.02c0,0.96,0,1.84,0,2.99
		c1.37,0,2.84,0.04,4.3-0.01c0.76-0.03,1.06,0.18,1.02,0.99c-0.03,0.64-0.24,0.85-0.87,0.84c-1.6-0.03-3.2,0.02-4.8-0.02
		c-1.03-0.03-1.68-0.64-1.52-1.65c0.2-1.26,0.32-2.42,0.02-3.71c-0.28-1.23-0.06-2.58-0.06-3.88c0-0.2,0.01-0.4,0-0.6
		c-0.03-0.96,0.56-1.45,1.4-1.5c1.49-0.08,3,0,4.5-0.03c0.61-0.01,0.82,0.48,1.17,0.8c0.11,0.1,0.15,0.36,0.12,0.53
		c-0.04,0.31-0.21,0.49-0.59,0.49C191.19,186.52,189.69,186.54,187.95,186.54z"/>
	<path class="st3" d="M235.35,191.33c0,1.08,0,1.95,0,2.99c1.63,0,3.2,0,4.78,0c0.36,0,0.55,0.18,0.55,0.52
		c0,0.18-0.04,0.4-0.15,0.53c-0.39,0.44-0.76,0.81-1.48,0.78c-1.78-0.08-3.57-0.02-5.56-0.02c0-1.95,0-3.82,0-5.69
		c0-1.79,0-3.59,0-5.52c0.92-0.34,1.91-0.13,2.87-0.16c1-0.04,2,0.02,3-0.02c0.73-0.02,0.73,0.4,0.75,0.94
		c0.02,0.62-0.17,0.89-0.83,0.87c-1.28-0.04-2.56-0.01-3.91-0.01c0,1.01,0,1.88,0,2.99c1.14,0,2.31,0.01,3.48,0
		c0.8-0.01,0.63,0.56,0.64,1.03c0.01,0.41,0,0.79-0.6,0.78C237.79,191.31,236.69,191.33,235.35,191.33z"/>
	<path class="st3" d="M108.69,189.24c0,1.09,0.04,2.19-0.01,3.28c-0.08,2.03-1.56,3.47-3.59,3.61c-1.74,0.12-3.42,0.06-4.36-1.7
		c-0.47-0.88-0.91-1.87-1-2.85c-0.16-1.77-0.01-3.57-0.07-5.36c-0.02-0.6,0.35-0.86,0.66-1.23c0.23-0.27,0.53-0.3,0.79-0.23
		c0.3,0.08,0.37,0.37,0.37,0.69c-0.01,1.79,0,3.58-0.01,5.36c0,0.78,0.08,1.45,0.57,2.16c0.79,1.16,1.69,1.68,3.08,1.34
		c0.79-0.2,1.74-1.46,1.75-2.4c0.02-2.09,0.02-4.17,0-6.26c-0.01-0.56,0.05-0.93,0.76-0.93c0.68,0,1.13,0.04,1.07,0.93
		C108.63,186.85,108.69,188.04,108.69,189.24z"/>
	<path class="st3" d="M222.69,184.95c2.07-0.78,3.68,0.29,5.39,0.45c1.49,0.13,2.37,3.06,1.41,4.23c-0.6,0.73-1.76,1.42-1.75,2.11
		c0.01,0.72,0.76,1.66,1.49,2.35c0.21,0.19,0.42,0.78,0.63,1.19c0.11,0.22,0.11,0.65-0.23,0.76c-0.23,0.08-0.64,0.06-0.79-0.1
		c-0.67-0.7-1.64-1.21-1.93-2.17c-0.26-0.85-0.95-1.24-1.5-1.75c-0.55-0.52-1.51,0.08-1.53,0.89c-0.02,0.8,0,1.59,0,2.39
		c0,0.4,0.03,0.8-0.55,0.83c-0.53,0.02-0.66-0.26-0.66-0.72c0.01-1.49,0-2.98,0-4.48C222.69,188.94,222.69,186.96,222.69,184.95z
		 M223.98,186.54c0,1.38,0,2.43,0,3.69c1.09-0.36,2.05,0.1,3.15-0.49c0.9-0.48,0.97-0.91,0.96-1.69c-0.01-0.95-0.57-1.4-1.39-1.48
		C225.84,186.47,224.96,186.54,223.98,186.54z"/>
	<path class="st3" d="M112.89,185.34c1.2,0,2.4,0,3.6,0c-0.08,0.42,0.28,1.06-0.45,1.19c-0.84,0.15-1.74-0.22-2.47,0.21
		c0,1.15,0,2.21,0,3.39c0.75,0,1.42,0,2.09,0c0.2,0,0.39-0.01,0.59,0c0.98,0.08,1.26-0.82,1.81-1.31c0.68-0.6-0.15-0.95-0.34-1.43
		c-0.17-0.43-0.03-0.97-0.03-1.46c1.07-0.12,1.7,0.4,1.78,1.41c0.13,1.54,0.29,3.14-1.78,3.7c-0.37,0.1-0.83,0.52-0.16,1.03
		c0.85,0.65,1.02,1.82,1.87,2.53c0.24,0.19,0.3,0.99-0.1,1.34c-0.49,0.43-0.91,0.05-1.21-0.35c-0.75-0.98-1.58-1.92-2.16-2.99
		c-0.23-0.44-0.5-0.8-0.82-1.14c-0.11-0.12-0.35-0.15-0.53-0.15c-0.33,0.01-0.52,0.19-0.51,0.55c0.01,0.89-0.05,1.79,0.02,2.68
		c0.04,0.58-0.22,0.94-0.62,1.24c-0.22,0.16-0.51,0.3-0.76,0.29c-0.3-0.01-0.46-0.26-0.44-0.62c0.03-0.49,0.01-0.99,0.01-1.49
		c0-2.88,0-5.76,0-8.65C112.49,185.34,112.69,185.34,112.89,185.34z"/>
	<path class="st3" d="M139.37,192.52c-0.64,0-1.03,0.02-1.43,0c-0.91-0.04-1.52,0.34-1.64,1.26c-0.06,0.49,0.02,0.97-0.47,1.3
		c-0.54,0.37-0.94,1.4-1.62,0.97c-0.79-0.51-0.07-1.25,0.14-1.99c0.84-2.83,2.71-5.25,3.15-8.22c0.08-0.54,0.54-1.04,1.2-1.08
		c0.58-0.03,1,0.52,1.09,0.86c0.55,2.16,1.91,3.98,2.47,6.12c0.3,1.17,1.41,2.03,1.23,3.36c-0.05,0.37,0.1,0.84-0.36,1.01
		c-0.41,0.15-0.77-0.09-1-0.44c-0.3-0.47-0.77-0.94-0.81-1.44C141.23,192.76,140.56,192.21,139.37,192.52z M140.34,191.25
		c-0.46-1.44-0.88-2.75-1.33-4.14c-1.17,1.15-1.26,2.61-1.6,4.14C138.49,191.25,139.37,191.25,140.34,191.25z"/>
	<path class="st1" d="M131.48,13.07c-0.04,0.56-0.47,0.49-0.86,0.49c-1.79-0.02-3.45,0.15-4.12,2.24c-0.11,0.34-0.58,0.54-0.81,0.86
		c-0.66,0.89-1.21-0.02-1.22-0.27c-0.05-1.36-0.93-1.86-2.01-2.23c-0.17-0.06-0.35-0.13-0.5-0.23c-0.88-0.61-0.91-1.25-0.07-1.85
		c0.29-0.21,0.74-0.22,1-0.45c0.51-0.45,1-0.95,1.38-1.51c0.27-0.4-0.38-1.26,0.62-1.35c0.6-0.05,0.82,0.51,1.13,0.85
		c1.35,1.43,2.39,2.02,5.09,2.74C131.37,12.43,131.56,12.77,131.48,13.07z"/>
	<path class="st3" d="M127.89,186.54c-1.2,0-2.19,0.05-3.17-0.02c-0.51-0.04-0.59-0.61-0.36-0.89c0.34-0.43,0.65-0.93,1.41-0.91
		c2.1,0.07,4.2,0.03,6.3,0.02c0.56,0,0.65,0.33,0.62,0.76c-0.03,0.45,0.19,1.05-0.62,1.05c-0.7,0-1.39,0-2.37,0
		c0,2.47,0.02,4.92-0.01,7.38c-0.01,0.56,0.25,1.19-0.34,1.65c-0.3,0.24-0.5,0.62-0.98,0.54c-0.56-0.09-0.48-0.51-0.48-0.9
		C127.89,192.42,127.89,189.63,127.89,186.54z"/>
	<path class="st3" d="M79.53,189.56c1.02-0.92,1.73-1.87,2.2-3.09c0.47-1.2,1.65-1.95,2.09-1.7c0.47,0.27,0.31,1.55-0.34,2.63
		c-0.05,0.08-0.12,0.15-0.19,0.22c-2.16,2.16-3.27,4.7-2.81,7.8c0.05,0.33-0.08,0.6-0.39,0.67c-0.28,0.07-0.53-0.05-0.79-0.24
		c-0.7-0.48-0.67-1.15-0.62-1.85c0.14-1.98-0.04-3.8-1.65-5.32c-0.63-0.59-0.61-1.73-1.29-2.44c-0.15-0.16-0.03-0.57-0.07-0.86
		c-0.04-0.34,0.11-0.57,0.42-0.65c0.17-0.04,0.41-0.02,0.55,0.08c0.24,0.17,0.49,0.38,0.63,0.63
		C78.02,186.75,78.71,188.06,79.53,189.56z"/>
	<path class="st3" d="M158.49,196.12c0-3.66,0.01-7.12-0.01-10.58c0-0.66,0.27-0.83,0.88-0.81c0.55,0.02,0.94,0.03,0.94,0.75
		c-0.02,2.87-0.01,5.74-0.01,8.84c1.61,0,3.18,0.01,4.74-0.01c0.34,0,0.61,0.12,0.64,0.42c0.02,0.25-0.13,0.53-0.27,0.77
		c-0.34,0.6-0.9,0.64-1.53,0.63C162.18,196.09,160.49,196.12,158.49,196.12z"/>
	<path class="st1" d="M119.71,33.22c0.53,0.48,0.69,1.13,0.7,1.39c0.09,1.77,1.32,2.38,2.66,2.85c0.48,0.17,0.66,0.36,0.6,0.78
		c-0.07,0.54-0.52,0.47-0.9,0.45c-1.23-0.07-2.08,0.22-2.13,1.72c-0.02,0.59-0.48,1.17-0.77,1.82c-0.77-0.32-0.13-1.04-0.4-1.43
		c-0.73-1.03-1.1-2.6-2.94-2.11c-0.34,0.09-0.61-0.12-0.62-0.42c-0.01-0.25,0.18-0.74,0.27-0.74
		C119.13,37.66,119.1,35.31,119.71,33.22z"/>
	<path class="st3" d="M169.89,190.74c0,1.39-0.01,2.78,0.01,4.17c0.01,0.37-0.16,0.56-0.48,0.6c-0.43,0.05-0.74-0.08-0.74-0.62
		c0.01-2.98,0.01-5.96,0-8.94c0-0.37,0.16-0.56,0.47-0.6c0.43-0.05,0.75,0.08,0.74,0.62C169.88,187.56,169.89,189.15,169.89,190.74z
		"/>
</g>
</svg>
